<svg xmlns="http://www.w3.org/2000/svg" version="1.1" xmlns:xlink="http://www.w3.org/1999/xlink" xmlns:svgjs="http://svgjs.dev/svgjs" width="2000" height="2204" viewBox="0 0 2000 2204"><g transform="matrix(1,0,0,1,0.9117732536451513,0)"><svg viewBox="0 0 254 280" data-background-color="#ffffff" preserveAspectRatio="xMidYMid meet" height="2204" width="2000" xmlns="http://www.w3.org/2000/svg" xmlns:xlink="http://www.w3.org/1999/xlink"><g id="tight-bounds" transform="matrix(1,0,0,1,-0.11579520321294012,0)"><svg viewBox="0 0 254.23159040642585 280" height="280" width="254.23159040642585"><g><svg viewBox="0 0 278.2696 306.4744545531925" height="280" width="254.23159040642585"><g><svg viewBox="0 0 278.2696 306.4744545531925" height="306.4744545531925" width="278.2696"><g id="textblocktransform"><svg viewBox="0 0 278.2696 306.4744545531925" height="306.4744545531925" width="278.2696" id="textblock"><g><svg viewBox="0 0 278.2696 278.2696" height="278.2696" width="278.2696"><g transform="matrix(1,0,0,1,91.10448485255571,89.94321971048298)"><svg viewBox="0 0 96.06063029488861 98.38316057903407" height="98.38316057903407" width="96.06063029488861"><g id="icon-0"><svg xmlns="http://www.w3.org/2000/svg" xmlns:xlink="http://www.w3.org/1999/xlink" version="1.1" x="0" y="0" viewBox="17.499999999999986 18.665930899208888 62.001999999999995 63.50106910079111" enable-background="new 0 0 100 100" xml:space="preserve" height="98.38316057903407" width="96.06063029488861" class="icon-xg-0" data-fill-palette-color="accent" id="xg-0"><path fill="#f5ba41" d="M78.05 19.583c-0.919-0.759-2.133-1.071-3.302-0.845l-37.334 7.167c-1.884 0.362-3.246 2.01-3.246 3.928v28.468c-1.351-0.51-2.807-0.802-4.334-0.802-6.801 0-12.334 5.533-12.334 12.334s5.533 12.334 12.334 12.334 12.334-5.533 12.334-12.334V33.139l29.334-5.631v23.627c-1.351-0.51-2.807-0.802-4.334-0.802-6.801 0-12.334 5.533-12.334 12.334s5.533 12.334 12.334 12.334 12.334-5.533 12.334-12.334v-40C79.502 21.474 78.97 20.343 78.05 19.583zM29.834 74.168c-2.39 0-4.334-1.944-4.334-4.334s1.944-4.334 4.334-4.334 4.334 1.944 4.334 4.334S32.224 74.168 29.834 74.168zM67.168 67.001c-2.39 0-4.334-1.944-4.334-4.334s1.944-4.334 4.334-4.334 4.334 1.944 4.334 4.334S69.558 67.001 67.168 67.001z" data-fill-palette-color="accent"></path></svg></g></svg></g><g id="text-0"><path d="M34.938 90.411l-0.827 2.373-18.108-6.308 1.07 0.564 14.843 12.046-0.436 1.253-19.135 0.274-1.179-0.252 18.109 6.308-0.83 2.383-26.414-9.201 0.43-1.234 24.449-0.466 1.004 0.265-0.951-0.417-18.875-15.536 0.437-1.252z" fill="#f5ba41" data-fill-palette-color="primary"></path><path d="M54.787 61.628l-0.5 0.629-2.415-0.225c0.244 0.888 0.283 1.787 0.115 2.698-0.172 0.916-0.56 1.754-1.164 2.515v0l-0.375 0.472c-0.504 0.635-1.098 1.134-1.782 1.498-0.682 0.374-1.4 0.603-2.153 0.69-0.749 0.081-1.497 0.021-2.245-0.18-0.749-0.21-1.438-0.565-2.067-1.066v0l-11.345-9.018 1.488-1.872 11.447 9.099c0.378 0.3 0.79 0.508 1.238 0.624 0.443 0.121 0.884 0.159 1.322 0.114 0.437-0.055 0.861-0.189 1.27-0.403 0.404-0.218 0.757-0.516 1.056-0.893v0l0.995-1.251c0.3-0.378 0.511-0.788 0.632-1.231 0.116-0.447 0.149-0.887 0.099-1.32-0.051-0.442-0.185-0.866-0.402-1.271-0.218-0.404-0.516-0.757-0.894-1.056v0l-11.447-9.1 1.495-1.88z" fill="#f5ba41" data-fill-palette-color="primary"></path><path d="M79.618 35.575v0c0.455 0.671 0.734 1.376 0.839 2.115 0.11 0.735 0.065 1.457-0.135 2.167-0.19 0.711-0.515 1.385-0.974 2.02-0.454 0.632-1.017 1.175-1.688 1.629v0l-1.323 0.896c-0.666 0.451-1.39 0.756-2.173 0.914-0.774 0.16-1.541 0.174-2.302 0.043-0.756-0.136-1.471-0.403-2.147-0.804-0.674-0.409-1.236-0.947-1.688-1.612v0l-0.451-0.666 1.761-1.666 0.744 1.098c0.271 0.399 0.607 0.717 1.011 0.954 0.409 0.233 0.84 0.386 1.294 0.459 0.45 0.067 0.911 0.054 1.382-0.038 0.468-0.098 0.901-0.283 1.3-0.554v0l1.323-0.896c0.399-0.271 0.741-0.591 1.024-0.961 0.287-0.365 0.497-0.754 0.63-1.167 0.138-0.417 0.185-0.838 0.141-1.261-0.044-0.423-0.201-0.835-0.472-1.234v0c-0.402-0.594-0.861-0.991-1.377-1.192-0.507-0.199-1.06-0.281-1.661-0.246-0.594 0.03-1.22 0.147-1.876 0.348-0.656 0.202-1.327 0.413-2.011 0.634-0.684 0.221-1.371 0.407-2.061 0.559-0.69 0.152-1.367 0.198-2.031 0.138-0.658-0.064-1.296-0.271-1.914-0.621-0.618-0.35-1.193-0.919-1.727-1.707v0c-0.451-0.666-0.734-1.364-0.85-2.095-0.115-0.731-0.089-1.445 0.079-2.142 0.177-0.695 0.484-1.352 0.922-1.972 0.432-0.616 0.984-1.152 1.655-1.607v0l1.156-0.783c0.671-0.455 1.387-0.754 2.148-0.897 0.763-0.153 1.516-0.157 2.261-0.015 0.735 0.141 1.431 0.422 2.089 0.843 0.652 0.424 1.203 0.969 1.654 1.635v0l0.045 0.067-1.761 1.666-0.338-0.499c-0.271-0.399-0.599-0.723-0.986-0.971-0.392-0.244-0.804-0.41-1.235-0.498-0.434-0.079-0.878-0.077-1.333 0.004-0.451 0.087-0.876 0.266-1.275 0.537v0l-1.157 0.783c-0.399 0.271-0.732 0.585-0.999 0.944-0.271 0.353-0.461 0.729-0.571 1.128-0.109 0.389-0.133 0.795-0.075 1.216 0.061 0.412 0.226 0.818 0.497 1.217v0c0.387 0.571 0.833 0.949 1.338 1.133 0.499 0.188 1.045 0.259 1.638 0.213 0.596-0.04 1.223-0.161 1.879-0.362 0.656-0.202 1.325-0.404 2.005-0.606 0.686-0.206 1.378-0.379 2.076-0.52 0.698-0.141 1.38-0.179 2.048-0.113 0.668 0.066 1.309 0.278 1.925 0.638 0.622 0.356 1.197 0.925 1.727 1.707z" fill="#f5ba41" data-fill-palette-color="primary"></path><path d="M97.511 6.511l-2.629 0.917-1.056-3.027 2.628-0.917zM105.492 29.954l-2.268 0.792-6.581-18.855 2.267-0.791z" fill="#f5ba41" data-fill-palette-color="primary"></path><path d="M140.728 19.23v0c0.053 0.802-0.05 1.571-0.31 2.307-0.254 0.729-0.631 1.378-1.13 1.948-0.493 0.57-1.087 1.029-1.782 1.377-0.695 0.355-1.444 0.559-2.246 0.612v0l-1.595 0.106c-0.809 0.054-1.578-0.05-2.307-0.31-0.735-0.253-1.388-0.63-1.958-1.13-0.564-0.5-1.023-1.094-1.377-1.782-0.348-0.695-0.549-1.444-0.602-2.246v0l-0.596-8.996c-0.053-0.802 0.047-1.571 0.3-2.306 0.26-0.736 0.637-1.385 1.13-1.948 0.499-0.57 1.097-1.03 1.792-1.378 0.688-0.354 1.437-0.559 2.246-0.612v0l1.594-0.106c0.802-0.053 1.571 0.05 2.307 0.31 0.735 0.253 1.385 0.63 1.949 1.13 0.57 0.493 1.029 1.087 1.377 1.783 0.355 0.695 0.559 1.444 0.612 2.245v0l0.053 0.803-2.371 0.55-0.087-1.324c-0.032-0.481-0.152-0.927-0.361-1.336-0.208-0.409-0.48-0.761-0.815-1.054-0.328-0.287-0.709-0.51-1.142-0.67-0.433-0.153-0.89-0.213-1.372-0.181v0l-1.595 0.106c-0.481 0.032-0.927 0.152-1.335 0.361-0.409 0.215-0.76 0.487-1.054 0.815-0.287 0.335-0.506 0.718-0.659 1.151-0.159 0.434-0.223 0.891-0.191 1.373v0l0.613 9.256c0.032 0.481 0.155 0.926 0.371 1.335 0.208 0.409 0.477 0.761 0.805 1.055 0.335 0.287 0.719 0.51 1.152 0.669 0.433 0.153 0.89 0.213 1.372 0.181v0l1.594-0.106c0.481-0.032 0.927-0.152 1.336-0.36 0.409-0.215 0.757-0.487 1.044-0.815 0.293-0.335 0.516-0.719 0.669-1.152 0.153-0.433 0.213-0.89 0.181-1.372v0l-0.088-1.324 2.423 0.233z" fill="#f5ba41" data-fill-palette-color="primary"></path><path d="M195.796 8.297l-15.227 24.6-1.249-0.38 0.931-21.717 0.239-1.061-0.431 1.003-11.296 18.559-1.25-0.381 1.046-28.92 2.404 0.732-0.955 21.93-0.225 1.014 0.379-0.967 11.338-18.767 1.346 0.41-1.041 21.904-0.235 1.01 0.398-0.961 11.415-18.743z" fill="#f5ba41" data-fill-palette-color="primary"></path><path d="M214.882 52.331l-0.651-0.471 0.091-2.39c-0.86 0.263-1.749 0.331-2.666 0.205-0.923-0.13-1.778-0.48-2.565-1.05v0l-0.489-0.353c-0.657-0.475-1.183-1.046-1.577-1.712-0.404-0.665-0.666-1.371-0.786-2.12-0.115-0.745-0.089-1.495 0.078-2.251 0.176-0.758 0.5-1.462 0.97-2.113v0l0.118-0.163c0.471-0.651 1.039-1.179 1.704-1.583 0.666-0.395 1.371-0.654 2.114-0.778 0.748-0.12 1.501-0.092 2.259 0.083 0.756 0.167 1.463 0.488 2.119 0.963v0l4.104 2.969 1.803-2.491c0.283-0.391 0.475-0.81 0.575-1.259 0.101-0.448 0.116-0.892 0.046-1.331-0.069-0.43-0.22-0.845-0.452-1.245-0.236-0.394-0.549-0.732-0.94-1.015v0l-1.14-0.825c-0.391-0.283-0.81-0.475-1.259-0.575-0.452-0.095-0.893-0.109-1.323-0.04-0.44 0.071-0.857 0.224-1.251 0.46-0.394 0.236-0.732 0.549-1.015 0.94v0l-0.418 0.578-1.722-1.717 0.118-0.163c0.471-0.651 1.042-1.177 1.711-1.577 0.665-0.404 1.369-0.663 2.114-0.779 0.743-0.124 1.493-0.098 2.251 0.078 0.761 0.171 1.468 0.491 2.119 0.963v0l1.14 0.825c0.651 0.471 1.177 1.042 1.578 1.712 0.404 0.665 0.663 1.369 0.778 2.113 0.124 0.743 0.098 1.493-0.078 2.251-0.171 0.761-0.491 1.468-0.963 2.12v0zM216.07 46.591l2.533-3.501-4.104-2.969c-0.391-0.283-0.81-0.475-1.258-0.576-0.448-0.101-0.892-0.116-1.332-0.045-0.438 0.08-0.854 0.238-1.248 0.474-0.399 0.232-0.741 0.543-1.023 0.934v0l-0.489 0.676c-0.283 0.391-0.472 0.812-0.568 1.264-0.101 0.448-0.119 0.89-0.053 1.326 0.074 0.434 0.228 0.851 0.46 1.25 0.236 0.394 0.549 0.732 0.94 1.016v0l1.294 0.936c0.391 0.283 0.81 0.475 1.259 0.576 0.452 0.095 0.893 0.109 1.323 0.039 0.44-0.071 0.857-0.224 1.251-0.459 0.394-0.236 0.732-0.549 1.015-0.941z" fill="#f5ba41" data-fill-palette-color="primary"></path><path d="M253.694 66.851l-20.278 6.137-0.709-0.963 11.891-17.535 1.418 1.927-9.1 13.172-0.792 0.67 0.882-0.549 15.264-4.793z" fill="#f5ba41" data-fill-palette-color="primary"></path><path d="M256.413 106.935v0c-0.753 0.281-1.52 0.402-2.299 0.363-0.771-0.035-1.501-0.209-2.19-0.524-0.687-0.309-1.297-0.746-1.83-1.313-0.539-0.564-0.949-1.223-1.23-1.976v0l-0.558-1.498c-0.283-0.76-0.404-1.526-0.364-2.299 0.032-0.777 0.206-1.51 0.521-2.2 0.317-0.683 0.755-1.293 1.313-1.83 0.566-0.533 1.226-0.94 1.98-1.22v0l8.448-3.149c0.753-0.281 1.519-0.405 2.295-0.373 0.779 0.038 1.51 0.213 2.191 0.525 0.689 0.315 1.301 0.756 1.833 1.322 0.537 0.558 0.947 1.217 1.23 1.976v0l0.558 1.498c0.281 0.753 0.402 1.52 0.364 2.299-0.032 0.777-0.207 1.507-0.525 2.19-0.309 0.687-0.746 1.297-1.313 1.83-0.564 0.539-1.223 0.949-1.976 1.23v0l-4.407 1.643-3.823-10.256-4.162 1.552c-0.452 0.168-0.843 0.414-1.173 0.737-0.332 0.317-0.592 0.675-0.78 1.074-0.179 0.403-0.282 0.835-0.311 1.295-0.022 0.459 0.051 0.914 0.22 1.366v0l0.558 1.498c0.168 0.452 0.411 0.844 0.728 1.176 0.323 0.33 0.683 0.586 1.079 0.767 0.405 0.185 0.837 0.289 1.296 0.311 0.459 0.022 0.914-0.051 1.366-0.22v0l1.243-0.463 0.472 2.388zM261.366 102.525l2.779-1.035c0.452-0.168 0.844-0.411 1.176-0.728 0.332-0.317 0.591-0.678 0.776-1.083 0.181-0.396 0.286-0.825 0.315-1.286 0.022-0.459-0.051-0.914-0.22-1.366v0l-0.558-1.498c-0.168-0.452-0.411-0.844-0.728-1.176-0.323-0.33-0.684-0.589-1.083-0.777-0.403-0.179-0.833-0.279-1.292-0.301-0.461-0.028-0.918 0.042-1.37 0.21v0l-2.778 1.035z" fill="#f5ba41" data-fill-palette-color="primary"></path><path d="M16.078 199.179l-0.827-2.373 18.109-6.308-1.189 0.222-19.115-0.216-0.437-1.253 14.824-12.103 1.08-0.535-18.109 6.308-0.83-2.383 26.414-9.2 0.43 1.233-18.865 15.565-0.955 0.407 1.004-0.265 24.442 0.447 0.437 1.253z" fill="#f5ba41" data-fill-palette-color="primary"></path><path d="M39.153 233.821l-0.494-0.622 0.764-2.302c-0.924 0.033-1.811-0.135-2.66-0.504-0.85-0.369-1.579-0.936-2.188-1.702v0l-0.375-0.472c-0.5-0.629-0.853-1.321-1.058-2.074-0.21-0.749-0.272-1.5-0.186-2.253 0.09-0.748 0.317-1.463 0.682-2.146 0.374-0.682 0.875-1.273 1.504-1.774v0l11.345-9.018 1.489 1.873-11.448 9.099c-0.378 0.3-0.673 0.655-0.887 1.064-0.218 0.404-0.354 0.825-0.408 1.263-0.045 0.438-0.01 0.881 0.105 1.328 0.121 0.443 0.332 0.853 0.632 1.231v0l0.995 1.251c0.3 0.378 0.652 0.675 1.056 0.893 0.41 0.214 0.833 0.348 1.27 0.403 0.438 0.045 0.879 0.007 1.322-0.114 0.443-0.121 0.853-0.332 1.231-0.632v0l11.447-9.099 1.495 1.88z" fill="#f5ba41" data-fill-palette-color="primary"></path><path d="M74.11 255.576v0c-0.455 0.671-1.006 1.192-1.654 1.563-0.642 0.374-1.33 0.6-2.062 0.678-0.731 0.087-1.477 0.035-2.237-0.156-0.755-0.188-1.468-0.509-2.14-0.964v0l-1.323-0.896c-0.666-0.451-1.217-1.011-1.654-1.679-0.435-0.659-0.733-1.367-0.893-2.123-0.154-0.752-0.171-1.516-0.049-2.292 0.13-0.778 0.421-1.499 0.872-2.164v0l0.451-0.666 2.2 1.017-0.744 1.098c-0.271 0.399-0.441 0.83-0.512 1.293-0.065 0.466-0.047 0.923 0.054 1.372 0.104 0.443 0.287 0.866 0.548 1.269 0.265 0.398 0.597 0.732 0.996 1.003v0l1.323 0.896c0.399 0.271 0.823 0.469 1.272 0.595 0.445 0.132 0.887 0.184 1.326 0.158 0.433-0.03 0.838-0.144 1.215-0.342 0.377-0.198 0.701-0.496 0.971-0.896v0c0.402-0.594 0.603-1.165 0.604-1.715-0.005-0.554-0.137-1.1-0.395-1.64-0.249-0.541-0.588-1.079-1.019-1.613-0.431-0.535-0.876-1.079-1.334-1.632-0.459-0.554-0.886-1.123-1.284-1.708-0.397-0.585-0.691-1.196-0.881-1.835-0.185-0.635-0.229-1.304-0.132-2.008 0.102-0.7 0.42-1.444 0.953-2.231v0c0.451-0.666 0.992-1.189 1.623-1.571 0.637-0.378 1.309-0.618 2.018-0.721 0.714-0.099 1.439-0.057 2.173 0.125 0.733 0.173 1.435 0.486 2.106 0.941v0l1.157 0.784c0.671 0.455 1.216 1.006 1.635 1.654 0.421 0.657 0.702 1.358 0.845 2.103 0.141 0.735 0.138 1.486-0.008 2.252-0.147 0.766-0.446 1.482-0.897 2.148v0l-0.045 0.067-2.209-1.023 0.344-0.508c0.267-0.394 0.444-0.816 0.531-1.267 0.087-0.451 0.088-0.895 0.004-1.332-0.084-0.437-0.25-0.849-0.498-1.236-0.248-0.387-0.572-0.715-0.971-0.986v0l-1.156-0.784c-0.399-0.271-0.813-0.466-1.242-0.586-0.432-0.115-0.852-0.152-1.259-0.112-0.405 0.049-0.793 0.179-1.162 0.389-0.36 0.209-0.676 0.513-0.947 0.913v0c-0.383 0.566-0.569 1.12-0.556 1.663 0.011 0.533 0.147 1.067 0.409 1.6 0.258 0.539 0.602 1.076 1.033 1.611 0.431 0.535 0.869 1.083 1.315 1.643 0.44 0.557 0.857 1.135 1.252 1.735 0.39 0.596 0.675 1.214 0.856 1.855 0.187 0.644 0.227 1.319 0.122 2.024-0.1 0.709-0.415 1.455-0.945 2.237z" fill="#f5ba41" data-fill-palette-color="primary"></path><path d="M107.254 248.595l-2.628-0.917 1.053-3.018 2.629 0.918zM98.91 271.922l-2.268-0.791 6.581-18.855 2.268 0.792z" fill="#f5ba41" data-fill-palette-color="primary"></path><path d="M140.13 272.788v0c-0.053 0.802-0.254 1.551-0.602 2.246-0.355 0.688-0.817 1.282-1.387 1.782-0.564 0.5-1.213 0.876-1.949 1.13-0.736 0.26-1.505 0.364-2.307 0.31v0l-1.594-0.106c-0.802-0.053-1.551-0.257-2.246-0.612-0.695-0.348-1.293-0.808-1.792-1.378-0.493-0.57-0.869-1.219-1.13-1.948-0.253-0.735-0.354-1.504-0.3-2.306v0l0.596-8.996c0.053-0.802 0.254-1.551 0.602-2.246 0.355-0.695 0.814-1.289 1.377-1.782 0.57-0.499 1.223-0.879 1.959-1.14 0.735-0.253 1.504-0.354 2.307-0.3v0l1.594 0.106c0.802 0.053 1.551 0.254 2.247 0.602 0.695 0.355 1.289 0.817 1.781 1.387 0.5 0.564 0.88 1.213 1.14 1.949 0.253 0.735 0.354 1.504 0.301 2.306v0l-0.054 0.803-2.422 0.222 0.088-1.324c0.031-0.475-0.029-0.929-0.182-1.362-0.153-0.433-0.372-0.817-0.659-1.151-0.293-0.335-0.645-0.607-1.053-0.815-0.409-0.208-0.855-0.329-1.336-0.361v0l-1.595-0.106c-0.481-0.032-0.939 0.028-1.372 0.181-0.433 0.153-0.817 0.376-1.152 0.669-0.328 0.294-0.597 0.645-0.805 1.055-0.215 0.409-0.338 0.851-0.37 1.325v0l-0.614 9.266c-0.032 0.481 0.032 0.939 0.191 1.373 0.153 0.433 0.372 0.817 0.659 1.151 0.294 0.328 0.645 0.6 1.054 0.815 0.409 0.208 0.855 0.329 1.336 0.361v0l1.594 0.106c0.481 0.032 0.939-0.028 1.372-0.181 0.434-0.159 0.818-0.382 1.152-0.669 0.328-0.294 0.597-0.645 0.805-1.055 0.208-0.409 0.329-0.855 0.361-1.336v0l0.088-1.323 2.37 0.55z" fill="#f5ba41" data-fill-palette-color="primary"></path><path d="M185.313 240.317l1.074 28.912-1.25 0.38-11.333-18.547-0.396-1.025 0.213 1.08 0.96 21.708-1.25 0.38-15.255-24.592 2.404-0.732 11.433 18.738 0.379 0.967-0.225-1.014-1.05-21.9 1.346-0.41 11.347 18.764 0.378 0.967-0.215-1.017-0.963-21.927z" fill="#f5ba41" data-fill-palette-color="primary"></path><path d="M226.588 246.871l-0.643 0.465-2.242-0.834c-0.025 0.903-0.241 1.77-0.647 2.602-0.407 0.832-1.007 1.535-1.8 2.108v0l-0.488 0.353c-0.651 0.471-1.358 0.792-2.12 0.963-0.758 0.176-1.511 0.204-2.259 0.084-0.743-0.124-1.448-0.383-2.113-0.778-0.665-0.404-1.232-0.932-1.704-1.583v0l-0.118-0.163c-0.471-0.651-0.795-1.356-0.971-2.114-0.171-0.761-0.196-1.512-0.078-2.251 0.12-0.748 0.382-1.455 0.787-2.119 0.4-0.67 0.926-1.241 1.577-1.712v0l4.104-2.969-1.809-2.5c-0.279-0.385-0.615-0.696-1.009-0.932-0.394-0.236-0.808-0.391-1.242-0.466-0.44-0.071-0.884-0.055-1.332 0.046-0.448 0.101-0.867 0.293-1.258 0.575v0l-1.14 0.825c-0.391 0.283-0.704 0.621-0.94 1.015-0.236 0.394-0.386 0.809-0.452 1.245-0.071 0.44-0.055 0.884 0.045 1.331 0.101 0.448 0.291 0.865 0.57 1.251v0l0.424 0.586-2.176 1.09-0.112-0.154c-0.471-0.651-0.792-1.358-0.962-2.12-0.176-0.758-0.202-1.508-0.078-2.251 0.115-0.745 0.372-1.452 0.772-2.121 0.404-0.665 0.932-1.232 1.583-1.704v0l1.14-0.825c0.651-0.471 1.356-0.795 2.114-0.971 0.761-0.171 1.514-0.194 2.257-0.069 0.745 0.115 1.452 0.372 2.121 0.772 0.665 0.404 1.232 0.932 1.704 1.583v0zM221.508 243.947l-2.539-3.51-4.104 2.969c-0.391 0.283-0.702 0.624-0.935 1.024-0.236 0.394-0.389 0.811-0.459 1.25-0.061 0.441-0.041 0.886 0.059 1.334 0.095 0.452 0.285 0.873 0.568 1.264v0l0.489 0.676c0.283 0.391 0.624 0.702 1.023 0.935 0.394 0.236 0.808 0.391 1.242 0.465 0.436 0.065 0.88 0.05 1.332-0.045 0.448-0.101 0.867-0.293 1.258-0.576v0l1.295-0.936c0.391-0.283 0.704-0.621 0.94-1.016 0.232-0.399 0.385-0.816 0.46-1.25 0.065-0.436 0.047-0.878-0.054-1.326-0.101-0.448-0.293-0.867-0.575-1.258z" fill="#f5ba41" data-fill-palette-color="primary"></path><path d="M237.61 204.336l11.891 17.534-0.709 0.964-20.278-6.138 1.424-1.934 15.276 4.777 0.876 0.557-0.787-0.678-9.117-13.148z" fill="#f5ba41" data-fill-palette-color="primary"></path><path d="M264.862 179.237v0c0.753 0.281 1.413 0.688 1.98 1.22 0.558 0.537 0.994 1.15 1.309 1.84 0.317 0.683 0.492 1.413 0.525 2.19 0.038 0.779-0.083 1.546-0.364 2.299v0l-0.558 1.498c-0.281 0.753-0.691 1.412-1.23 1.976-0.533 0.566-1.144 1.007-1.833 1.322-0.687 0.309-1.417 0.484-2.191 0.525-0.777 0.032-1.542-0.092-2.296-0.373v0l-8.447-3.149c-0.753-0.281-1.413-0.688-1.98-1.22-0.564-0.539-1.002-1.149-1.313-1.83-0.315-0.689-0.492-1.424-0.53-2.204-0.032-0.777 0.092-1.542 0.373-2.295v0l0.558-1.498c0.281-0.753 0.688-1.413 1.221-1.98 0.539-0.564 1.152-1.001 1.839-1.309 0.683-0.317 1.414-0.495 2.194-0.534 0.777-0.032 1.542 0.092 2.296 0.373v0l4.407 1.643-3.822 10.255 4.162 1.552c0.452 0.168 0.909 0.239 1.37 0.21 0.459-0.022 0.889-0.123 1.292-0.301 0.399-0.187 0.76-0.446 1.083-0.777 0.317-0.332 0.56-0.725 0.728-1.176v0l0.558-1.498c0.168-0.452 0.242-0.907 0.22-1.366-0.028-0.461-0.132-0.893-0.311-1.295-0.187-0.399-0.447-0.757-0.78-1.074-0.332-0.317-0.725-0.56-1.176-0.728v0l-1.243-0.463 1.206-2.114zM258.222 179.325l-2.778-1.035c-0.446-0.166-0.898-0.238-1.357-0.216-0.459 0.022-0.889 0.123-1.292 0.301-0.405 0.185-0.766 0.444-1.083 0.776-0.317 0.332-0.56 0.725-0.728 1.177v0l-0.558 1.497c-0.168 0.452-0.242 0.907-0.22 1.366 0.022 0.459 0.126 0.891 0.311 1.296 0.187 0.399 0.447 0.757 0.78 1.074 0.33 0.323 0.718 0.568 1.164 0.734v0l2.778 1.035z" fill="#f5ba41" data-fill-palette-color="primary"></path><path d="M3.162 141.51c0-5.901 4.784-10.685 10.685-10.684 5.901 0 10.685 4.784 10.684 10.684 0 5.901-4.784 10.685-10.684 10.685-5.901 0-10.685-4.784-10.685-10.685z" fill="#f5ba41" data-fill-palette-color="primary"></path><path d="M254.869 141.51c0-5.901 4.784-10.685 10.685-10.684 5.901 0 10.685 4.784 10.684 10.684 0 5.901-4.784 10.685-10.684 10.685-5.901 0-10.685-4.784-10.685-10.685z" fill="#f5ba41" data-fill-palette-color="primary"></path></g><g id="text-1"></g></svg></g><g transform="matrix(1,0,0,1,53.1494936,295.46854)"><svg viewBox="0 0 171.97061280000003 11.005914553192504" height="11.005914553192504" width="171.97061280000003"><g transform="matrix(1,0,0,1,0,0)"><svg width="171.97061280000003" viewBox="2.27 -39.5 820.49 52.51" height="11.005914553192504" data-palette-color="#f5ba41"><path d="M19.02 0L10.99-26.22 8.25 0 2.27 0 8.25-35.16 17.11-35.16 25.34-8.33 33.67-35.16 42.53-35.16 47.51 0 37.65 0 34.74-25.54 27.88 0 19.02 0ZM51.41-12.06L51.41-12.06Q51.41-13.99 51.74-16.06 52.07-18.14 52.7-20.21 53.32-22.29 54.2-24.32 55.08-26.34 56.17-28.2L56.17-28.2 62.2-28.2Q61.59-26.37 61.12-24.38 60.64-22.39 60.31-20.4 59.98-18.41 59.8-16.5 59.62-14.6 59.62-12.96L59.62-12.96Q59.62-12.01 59.7-10.93 59.79-9.84 60.01-8.75 60.23-7.67 60.63-6.67 61.03-5.66 61.67-4.9 62.3-4.13 63.22-3.67 64.13-3.22 65.38-3.22L65.38-3.22Q66.6-3.22 67.56-3.77 68.53-4.32 69.26-5.21 69.99-6.1 70.51-7.25 71.02-8.4 71.35-9.61 71.68-10.82 71.84-11.98 71.99-13.13 71.99-14.06L71.99-14.06 71.99-28.2 80.25-28.2 80.25 0 77.07 0 73.29-6.57Q72.58-4.93 71.57-3.6 70.55-2.27 69.26-1.32 67.97-0.37 66.39 0.15 64.82 0.66 62.99 0.66L62.99 0.66Q60.06 0.66 57.88-0.29 55.71-1.25 54.27-2.93 52.83-4.61 52.12-6.95 51.41-9.28 51.41-12.06ZM111.4-9.01L111.4-9.01Q111.4-7.15 110.86-5.71 110.32-4.27 109.39-3.21 108.47-2.15 107.2-1.43 105.93-0.71 104.47-0.27 103.02 0.17 101.44 0.37 99.85 0.56 98.29 0.56L98.29 0.56Q96.19 0.56 94.58 0.29 92.96 0.02 91.5-0.57 90.03-1.17 88.58-2.12 87.13-3.08 85.35-4.44L85.35-4.44 90.16-8.37Q90.82-7.13 91.9-6.12 92.99-5.1 94.16-4.37 95.33-3.64 96.43-3.25 97.53-2.86 98.21-2.86L98.21-2.86Q98.77-2.86 99.48-2.89 100.19-2.93 100.92-3.04 101.66-3.15 102.36-3.37 103.07-3.59 103.62-3.97 104.17-4.35 104.5-4.92 104.83-5.49 104.83-6.3L104.83-6.3Q104.83-7.13 104.4-7.75 103.97-8.37 103.29-8.84 102.61-9.3 101.73-9.62 100.85-9.94 99.96-10.18 99.07-10.42 98.24-10.61 97.41-10.79 96.8-10.96L96.8-10.96Q95.67-11.28 94.43-11.61 93.18-11.94 91.96-12.37 90.74-12.79 89.63-13.38 88.52-13.96 87.68-14.78 86.84-15.6 86.34-16.71 85.83-17.82 85.83-19.31L85.83-19.31Q85.83-22.05 86.92-23.89 88.01-25.73 89.79-26.84 91.57-27.95 93.84-28.42 96.11-28.88 98.46-28.88L98.46-28.88Q100.07-28.88 101.85-28.55 103.63-28.22 105.32-27.58 107-26.93 108.47-26 109.93-25.07 110.91-23.88L110.91-23.88 106.1-19.92Q105.56-21.39 104.69-22.44 103.83-23.49 102.81-24.16 101.8-24.83 100.74-25.15 99.68-25.46 98.77-25.46L98.77-25.46Q97.9-25.46 96.8-25.39 95.7-25.32 94.73-24.98 93.77-24.63 93.1-23.94 92.43-23.24 92.43-22.02L92.43-22.02Q92.43-21.14 92.83-20.52 93.23-19.9 93.89-19.45 94.55-18.99 95.39-18.69 96.24-18.38 97.11-18.15 97.99-17.92 98.82-17.75 99.65-17.58 100.31-17.38L100.31-17.38Q101.44-17.07 102.69-16.74 103.95-16.41 105.17-15.98 106.39-15.55 107.53-14.98 108.66-14.4 109.52-13.57 110.37-12.74 110.88-11.63 111.4-10.52 111.4-9.01ZM125.26-35.01L125.26-35.01Q125.26-34.08 124.91-33.25 124.55-32.42 123.94-31.81 123.33-31.2 122.5-30.85 121.67-30.49 120.74-30.49L120.74-30.49Q119.82-30.49 119-30.85 118.18-31.2 117.57-31.81 116.96-32.42 116.61-33.25 116.25-34.08 116.25-35.01L116.25-35.01Q116.25-35.94 116.61-36.76 116.96-37.57 117.57-38.18 118.18-38.79 119-39.15 119.82-39.5 120.74-39.5L120.74-39.5Q121.67-39.5 122.5-39.15 123.33-38.79 123.94-38.18 124.55-37.57 124.91-36.76 125.26-35.94 125.26-35.01ZM124.89-28.17L124.89 0 116.62 0 116.62-28.17 124.89-28.17ZM157.83-21.22L157.83-21.22 154.26-19.8Q153.41-22.49 151.41-23.93 149.4-25.37 146.6-25.37L146.6-25.37Q145.08-25.37 143.9-24.89 142.71-24.41 141.82-23.58 140.93-22.75 140.31-21.66 139.69-20.56 139.3-19.31 138.91-18.07 138.74-16.74 138.56-15.41 138.56-14.16L138.56-14.16Q138.56-12.82 138.71-11.45 138.86-10.08 139.21-8.83 139.57-7.57 140.15-6.48 140.74-5.4 141.63-4.59 142.52-3.78 143.75-3.32 144.99-2.86 146.6-2.86L146.6-2.86Q147.89-2.86 149.06-3.25 150.23-3.64 151.21-4.35 152.19-5.05 152.94-6.03 153.7-7.01 154.14-8.2L154.14-8.2 157.73-6.88Q156.92-4.96 155.59-3.55 154.26-2.15 152.58-1.23 150.89-0.32 148.96 0.12 147.04 0.56 145.06 0.56L145.06 0.56Q141.86 0.56 139.13-0.52 136.39-1.61 134.4-3.58 132.41-5.54 131.29-8.24 130.17-10.94 130.17-14.16L130.17-14.16Q130.17-17.41 131.28-20.12 132.39-22.83 134.37-24.78 136.34-26.73 139.08-27.81 141.81-28.88 145.06-28.88L145.06-28.88Q147.11-28.88 149.06-28.43 151.02-27.98 152.69-27.04 154.36-26.1 155.69-24.66 157.02-23.22 157.83-21.22ZM187.09-15.33L187.09 0 177.4 0 177.4-35.16 202.65-35.16 202.65-30.66 187.09-30.66 187.09-19.8 199.11-19.8 199.11-15.33 187.09-15.33ZM235.24-14.16L235.24-14.16Q235.24-11.96 234.65-10.03 234.06-8.11 233.03-6.47 231.99-4.83 230.52-3.53 229.06-2.22 227.31-1.32 225.57-0.42 223.58 0.07 221.59 0.56 219.49 0.56L219.49 0.56Q217.39 0.56 215.41 0.07 213.43-0.42 211.69-1.32 209.94-2.22 208.48-3.53 207.01-4.83 205.98-6.47 204.94-8.11 204.35-10.05 203.77-11.99 203.77-14.16L203.77-14.16Q203.77-16.33 204.35-18.27 204.94-20.21 205.98-21.85 207.01-23.49 208.48-24.79 209.94-26.1 211.69-27 213.43-27.91 215.41-28.39 217.39-28.88 219.49-28.88L219.49-28.88Q221.59-28.88 223.58-28.39 225.57-27.91 227.31-27 229.06-26.1 230.52-24.79 231.99-23.49 233.03-21.85 234.06-20.21 234.65-18.27 235.24-16.33 235.24-14.16ZM226.84-14.16L226.84-14.16Q226.84-15.33 226.7-16.64 226.57-17.94 226.25-19.2 225.93-20.46 225.39-21.62 224.84-22.78 224.03-23.65 223.22-24.51 222.1-25.04 220.98-25.56 219.49-25.56L219.49-25.56Q218.07-25.56 216.97-25.02 215.88-24.49 215.06-23.6 214.24-22.71 213.69-21.53 213.14-20.36 212.8-19.1 212.46-17.85 212.31-16.56 212.17-15.28 212.17-14.16L212.17-14.16Q212.17-13.04 212.31-11.76 212.46-10.47 212.8-9.2 213.14-7.93 213.69-6.77 214.24-5.62 215.06-4.72 215.88-3.83 216.97-3.3 218.07-2.76 219.49-2.76L219.49-2.76Q220.95-2.76 222.08-3.28 223.2-3.81 224.02-4.69 224.84-5.57 225.37-6.71 225.91-7.86 226.24-9.13 226.57-10.4 226.7-11.69 226.84-12.99 226.84-14.16ZM264.41-25.71L264.41-25.71 259.77-18.02Q259.48-18.99 259.01-20.21 258.55-21.44 257.87-22.5 257.18-23.56 256.23-24.28 255.28-25 254.03-25L254.03-25Q252.89-25 252.04-24.41 251.2-23.83 250.61-22.89 250.03-21.95 249.65-20.76 249.27-19.58 249.06-18.37 248.86-17.16 248.78-16.05 248.71-14.94 248.71-14.14L248.71-14.14 248.71 0 240.43 0 240.43-28.2 243.61-28.2 246.95-21.63Q247.64-23.22 248.52-24.55 249.39-25.88 250.54-26.84 251.69-27.81 253.14-28.34 254.59-28.88 256.43-28.88L256.43-28.88Q257.38-28.88 258.55-28.72 259.72-28.56 260.84-28.19 261.97-27.81 262.92-27.2 263.87-26.59 264.41-25.71ZM307.79-4.49L307.79 0 282.54 0 282.54-35.16 307.79-35.16 307.79-30.66 292.24-30.66 292.24-19.8 304.25-19.8 304.25-15.33 292.24-15.33 292.24-4.49 307.79-4.49ZM338.06-28.2L326.95 0 319.53 0 309.27-28.2 317.53-28.2 325.05-5.74 332.35-28.2 338.06-28.2ZM347.77-13.38L347.77-13.38Q349.29-13.04 350.8-12.84 352.31-12.65 353.85-12.65L353.85-12.65Q355.46-12.65 356.84-12.95 358.22-13.26 359.24-13.98 360.25-14.7 360.83-15.89 361.42-17.09 361.42-18.87L361.42-18.87Q361.42-20.31 361.03-21.51 360.64-22.71 359.87-23.56 359.1-24.41 357.98-24.89 356.85-25.37 355.37-25.37L355.37-25.37Q353.97-25.37 352.86-24.85 351.75-24.34 350.91-23.47 350.07-22.61 349.47-21.46 348.87-20.31 348.48-19.07 348.09-17.82 347.92-16.55 347.75-15.28 347.75-14.16L347.75-14.16Q347.75-13.96 347.75-13.77 347.75-13.57 347.77-13.38ZM368.11-18.95L368.11-18.95Q368.11-17.21 367.55-15.86 366.99-14.5 366.02-13.48 365.06-12.45 363.79-11.74 362.52-11.04 361.08-10.58 359.64-10.13 358.11-9.94 356.59-9.74 355.15-9.74L355.15-9.74Q353.31-9.74 351.53-10 349.75-10.25 348.02-10.82L348.02-10.82Q348.29-9.2 348.87-7.75 349.46-6.3 350.43-5.21 351.41-4.13 352.84-3.49 354.27-2.86 356.22-2.86L356.22-2.86Q357.51-2.86 358.69-3.25 359.86-3.64 360.83-4.35 361.81-5.05 362.56-6.03 363.3-7.01 363.76-8.2L363.76-8.2 367.33-6.88Q366.52-4.96 365.12-3.55 363.72-2.15 361.95-1.23 360.18-0.32 358.19 0.12 356.2 0.56 354.24 0.56L354.24 0.56Q351.02 0.56 348.29-0.52 345.55-1.61 343.57-3.56 341.6-5.52 340.47-8.23 339.35-10.94 339.35-14.16L339.35-14.16Q339.35-17.38 340.47-20.09 341.6-22.8 343.57-24.76 345.55-26.71 348.29-27.8 351.02-28.88 354.24-28.88L354.24-28.88Q355.8-28.88 357.44-28.66 359.08-28.44 360.61-27.97 362.15-27.49 363.52-26.73 364.89-25.98 365.9-24.87 366.91-23.75 367.51-22.29 368.11-20.83 368.11-18.95ZM397.23-25.71L397.23-25.71 392.59-18.02Q392.3-18.99 391.84-20.21 391.37-21.44 390.69-22.5 390.01-23.56 389.05-24.28 388.1-25 386.86-25L386.86-25Q385.71-25 384.87-24.41 384.03-23.83 383.44-22.89 382.85-21.95 382.47-20.76 382.1-19.58 381.89-18.37 381.68-17.16 381.61-16.05 381.53-14.94 381.53-14.14L381.53-14.14 381.53 0 373.26 0 373.26-28.2 376.43-28.2 379.78-21.63Q380.46-23.22 381.34-24.55 382.22-25.88 383.37-26.84 384.51-27.81 385.97-28.34 387.42-28.88 389.25-28.88L389.25-28.88Q390.2-28.88 391.37-28.72 392.55-28.56 393.67-28.19 394.79-27.81 395.74-27.2 396.7-26.59 397.23-25.71ZM420.2-28.2L425.92-28.2 415.66-3.39Q413.91 0.85 411.74 5.02 409.58 9.18 407.07 13.01L407.07 13.01 403.85 11.06Q404.46 9.96 405.29 8.52 406.12 7.08 406.92 5.54 407.73 4 408.41 2.5 409.1 1 409.46-0.24L409.46-0.24 397.13-28.2 405.38-28.2 413.76-9.13 420.2-28.2ZM458.48-14.16L458.48-14.16Q458.48-11.96 457.9-10.03 457.31-8.11 456.27-6.47 455.24-4.83 453.77-3.53 452.31-2.22 450.56-1.32 448.82-0.42 446.83 0.07 444.84 0.56 442.74 0.56L442.74 0.56Q440.64 0.56 438.66 0.07 436.68-0.42 434.94-1.32 433.19-2.22 431.73-3.53 430.26-4.83 429.22-6.47 428.19-8.11 427.6-10.05 427.01-11.99 427.01-14.16L427.01-14.16Q427.01-16.33 427.6-18.27 428.19-20.21 429.22-21.85 430.26-23.49 431.73-24.79 433.19-26.1 434.94-27 436.68-27.91 438.66-28.39 440.64-28.88 442.74-28.88L442.74-28.88Q444.84-28.88 446.83-28.39 448.82-27.91 450.56-27 452.31-26.1 453.77-24.79 455.24-23.49 456.27-21.85 457.31-20.21 457.9-18.27 458.48-16.33 458.48-14.16ZM450.08-14.16L450.08-14.16Q450.08-15.33 449.95-16.64 449.82-17.94 449.5-19.2 449.18-20.46 448.63-21.62 448.08-22.78 447.28-23.65 446.47-24.51 445.35-25.04 444.23-25.56 442.74-25.56L442.74-25.56Q441.32-25.56 440.22-25.02 439.12-24.49 438.3-23.6 437.49-22.71 436.94-21.53 436.39-20.36 436.05-19.1 435.7-17.85 435.56-16.56 435.41-15.28 435.41-14.16L435.41-14.16Q435.41-13.04 435.56-11.76 435.7-10.47 436.05-9.2 436.39-7.93 436.94-6.77 437.49-5.62 438.3-4.72 439.12-3.83 440.22-3.3 441.32-2.76 442.74-2.76L442.74-2.76Q444.2-2.76 445.32-3.28 446.45-3.81 447.26-4.69 448.08-5.57 448.62-6.71 449.16-7.86 449.49-9.13 449.82-10.4 449.95-11.69 450.08-12.99 450.08-14.16ZM492.51-16.16L492.51-16.16Q492.51-13.31 491.82-10.21 491.12-7.1 489.88-4.13 488.63-1.15 486.9 1.48 485.17 4.1 483.09 6.01L483.09 6.01 479.99 4.32Q480.65 3.1 481.23 1.59 481.82 0.07 482.3-1.62 482.77-3.32 483.15-5.13 483.53-6.93 483.79-8.7 484.04-10.47 484.18-12.15 484.31-13.82 484.31-15.26L484.31-15.26Q484.31-16.21 484.24-17.3 484.16-18.38 483.93-19.47 483.7-20.56 483.31-21.56 482.92-22.56 482.27-23.32 481.63-24.07 480.71-24.54 479.79-25 478.55-25L478.55-25Q477.33-25 476.38-24.45 475.42-23.9 474.69-23.01 473.96-22.12 473.43-20.97 472.91-19.82 472.58-18.62 472.25-17.41 472.1-16.24 471.96-15.06 471.96-14.14L471.96-14.14 471.96 0 463.68 0 463.68-28.2 466.85-28.2 470.64-21.63Q471.32-23.27 472.35-24.61 473.37-25.95 474.67-26.9 475.96-27.86 477.54-28.37 479.11-28.88 480.94-28.88L480.94-28.88Q483.87-28.88 486.04-27.93 488.22-26.98 489.66-25.28 491.1-23.58 491.81-21.25 492.51-18.92 492.51-16.16ZM504.74-13.38L504.74-13.38Q506.26-13.04 507.77-12.84 509.28-12.65 510.82-12.65L510.82-12.65Q512.43-12.65 513.81-12.95 515.19-13.26 516.21-13.98 517.22-14.7 517.8-15.89 518.39-17.09 518.39-18.87L518.39-18.87Q518.39-20.31 518-21.51 517.61-22.71 516.84-23.56 516.07-24.41 514.95-24.89 513.82-25.37 512.34-25.37L512.34-25.37Q510.94-25.37 509.83-24.85 508.72-24.34 507.88-23.47 507.04-22.61 506.44-21.46 505.84-20.31 505.45-19.07 505.06-17.82 504.89-16.55 504.72-15.28 504.72-14.16L504.72-14.16Q504.72-13.96 504.72-13.77 504.72-13.57 504.74-13.38ZM525.08-18.95L525.08-18.95Q525.08-17.21 524.52-15.86 523.96-14.5 522.99-13.48 522.03-12.45 520.76-11.74 519.49-11.04 518.05-10.58 516.61-10.13 515.08-9.94 513.56-9.74 512.12-9.74L512.12-9.74Q510.28-9.74 508.5-10 506.72-10.25 504.99-10.82L504.99-10.82Q505.26-9.2 505.84-7.75 506.43-6.3 507.4-5.21 508.38-4.13 509.81-3.49 511.24-2.86 513.19-2.86L513.19-2.86Q514.48-2.86 515.66-3.25 516.83-3.64 517.8-4.35 518.78-5.05 519.53-6.03 520.27-7.01 520.73-8.2L520.73-8.2 524.3-6.88Q523.49-4.96 522.09-3.55 520.69-2.15 518.92-1.23 517.14-0.32 515.16 0.12 513.17 0.56 511.21 0.56L511.21 0.56Q507.99 0.56 505.26-0.52 502.52-1.61 500.54-3.56 498.57-5.52 497.44-8.23 496.32-10.94 496.32-14.16L496.32-14.16Q496.32-17.38 497.44-20.09 498.57-22.8 500.54-24.76 502.52-26.71 505.26-27.8 507.99-28.88 511.21-28.88L511.21-28.88Q512.77-28.88 514.41-28.66 516.05-28.44 517.58-27.97 519.12-27.49 520.49-26.73 521.86-25.98 522.87-24.87 523.88-23.75 524.48-22.29 525.08-20.83 525.08-18.95ZM538.24-3.66L538.24-3.66Q538.24-2.73 537.89-1.92 537.55-1.1 536.94-0.5 536.33 0.1 535.53 0.45 534.72 0.81 533.79 0.81L533.79 0.81Q532.87 0.81 532.06 0.45 531.25 0.1 530.64-0.5 530.03-1.1 529.69-1.92 529.35-2.73 529.35-3.66L529.35-3.66Q529.35-4.57 529.69-5.38 530.03-6.2 530.64-6.8 531.25-7.4 532.06-7.75 532.87-8.11 533.79-8.11L533.79-8.11Q534.72-8.11 535.53-7.75 536.33-7.4 536.94-6.8 537.55-6.2 537.89-5.38 538.24-4.57 538.24-3.66ZM592.41-16.82L592.41-16.82 592.41-16.36Q592.36-14.31 591.98-12.11 591.6-9.91 590.92-7.71 590.23-5.52 589.28-3.37 588.33-1.22 587.14 0.74 585.96 2.71 584.59 4.43 583.23 6.15 581.71 7.47L581.71 7.47 578.07 5.37Q578.93 3.93 579.63 2.23 580.32 0.54 580.88-1.32 581.44-3.17 581.85-5.13 582.25-7.08 582.52-9.01 582.79-10.94 582.92-12.81 583.06-14.67 583.06-16.36L583.06-16.36Q583.06-17.68 583.04-19.35 583.03-21.02 582.85-22.75 582.66-24.49 582.25-26.14 581.83-27.78 581.02-29.08 580.2-30.37 578.92-31.15 577.64-31.93 575.73-31.93L575.73-31.93Q574.05-31.93 572.84-31.36 571.63-30.79 570.79-29.82 569.95-28.86 569.44-27.59 568.94-26.32 568.66-24.91 568.38-23.51 568.3-22.08 568.21-20.65 568.21-19.38L568.21-19.38 568.21-12.57 578.73-12.57 578.73-8.54 568.21-8.54 568.21 0 558.52 0 558.52-17.87Q558.52-21.7 559.74-25 560.96-28.3 563.19-30.73 565.43-33.15 568.57-34.53 571.7-35.91 575.56-35.91L575.56-35.91Q578.17-35.91 580.46-35.17 582.74-34.42 584.62-33.12 586.5-31.81 587.97-30.02 589.45-28.22 590.44-26.1 591.43-23.97 591.94-21.61 592.45-19.24 592.41-16.82ZM626.63-16.16L626.63-16.16Q626.63-13.31 625.94-10.21 625.24-7.1 624-4.13 622.75-1.15 621.02 1.48 619.28 4.1 617.21 6.01L617.21 6.01 614.11 4.32Q614.77 3.1 615.35 1.59 615.94 0.07 616.41-1.62 616.89-3.32 617.27-5.13 617.65-6.93 617.9-8.7 618.16-10.47 618.29-12.15 618.43-13.82 618.43-15.26L618.43-15.26Q618.43-16.21 618.36-17.3 618.28-18.38 618.05-19.47 617.82-20.56 617.43-21.56 617.04-22.56 616.39-23.32 615.74-24.07 614.83-24.54 613.91-25 612.67-25L612.67-25Q611.45-25 610.49-24.45 609.54-23.9 608.81-23.01 608.08-22.12 607.55-20.97 607.03-19.82 606.7-18.62 606.37-17.41 606.22-16.24 606.08-15.06 606.08-14.14L606.08-14.14 606.08 0 597.8 0 597.8-28.2 600.97-28.2 604.76-21.63Q605.44-23.27 606.47-24.61 607.49-25.95 608.79-26.9 610.08-27.86 611.65-28.37 613.23-28.88 615.06-28.88L615.06-28.88Q617.99-28.88 620.16-27.93 622.34-26.98 623.78-25.28 625.22-23.58 625.92-21.25 626.63-18.92 626.63-16.16ZM651.29-28.2L657-28.2 646.75-3.39Q644.99 0.85 642.83 5.02 640.67 9.18 638.15 13.01L638.15 13.01 634.93 11.06Q635.54 9.96 636.37 8.52 637.2 7.08 638.01 5.54 638.81 4 639.5 2.5 640.18 1 640.55-0.24L640.55-0.24 628.22-28.2 636.47-28.2 644.84-9.13 651.29-28.2ZM678.04-17.14L673.38 0 665.96 0 658.24-28.2 666.5-28.2 671.33-8.42 675.36-28.2 682.78-28.2 687.71-7.89 692.47-28.2 698.18-28.2 689.64 0 682.22 0 678.04-17.14ZM731.24-16.16L731.24-16.16Q731.24-13.31 730.54-10.21 729.85-7.1 728.6-4.13 727.36-1.15 725.62 1.48 723.89 4.1 721.81 6.01L721.81 6.01 718.71 4.32Q719.37 3.1 719.96 1.59 720.55 0.07 721.02-1.62 721.5-3.32 721.88-5.13 722.25-6.93 722.51-8.7 722.77-10.47 722.9-12.15 723.04-13.82 723.04-15.26L723.04-15.26Q723.04-16.21 722.96-17.3 722.89-18.38 722.66-19.47 722.43-20.56 722.03-21.56 721.64-22.56 721-23.32 720.35-24.07 719.43-24.54 718.52-25 717.27-25L717.27-25Q716.05-25 715.1-24.45 714.15-23.9 713.42-23.01 712.68-22.12 712.16-20.97 711.63-19.82 711.3-18.62 710.98-17.41 710.83-16.24 710.68-15.06 710.68-14.14L710.68-14.14 710.68 0 702.41 0 702.41-38.57 710.66-38.57 710.66-24.05Q712.24-26.37 714.55-27.62 716.86-28.88 719.67-28.88L719.67-28.88Q722.6-28.88 724.77-27.93 726.94-26.98 728.38-25.28 729.82-23.58 730.53-21.25 731.24-18.92 731.24-16.16ZM743.47-13.38L743.47-13.38Q744.98-13.04 746.5-12.84 748.01-12.65 749.55-12.65L749.55-12.65Q751.16-12.65 752.54-12.95 753.92-13.26 754.93-13.98 755.94-14.7 756.53-15.89 757.12-17.09 757.12-18.87L757.12-18.87Q757.12-20.31 756.72-21.51 756.33-22.71 755.56-23.56 754.8-24.41 753.67-24.89 752.55-25.37 751.06-25.37L751.06-25.37Q749.67-25.37 748.56-24.85 747.45-24.34 746.6-23.47 745.76-22.61 745.16-21.46 744.57-20.31 744.18-19.07 743.79-17.82 743.61-16.55 743.44-15.28 743.44-14.16L743.44-14.16Q743.44-13.96 743.44-13.77 743.44-13.57 743.47-13.38ZM763.8-18.95L763.8-18.95Q763.8-17.21 763.24-15.86 762.68-14.5 761.72-13.48 760.75-12.45 759.48-11.74 758.21-11.04 756.77-10.58 755.33-10.13 753.81-9.94 752.28-9.74 750.84-9.74L750.84-9.74Q749.01-9.74 747.23-10 745.45-10.25 743.71-10.82L743.71-10.82Q743.98-9.2 744.57-7.75 745.15-6.3 746.13-5.21 747.11-4.13 748.53-3.49 749.96-2.86 751.92-2.86L751.92-2.86Q753.21-2.86 754.38-3.25 755.55-3.64 756.53-4.35 757.51-5.05 758.25-6.03 759-7.01 759.46-8.2L759.46-8.2 763.02-6.88Q762.22-4.96 760.81-3.55 759.41-2.15 757.64-1.23 755.87-0.32 753.88 0.12 751.89 0.56 749.94 0.56L749.94 0.56Q746.71 0.56 743.98-0.52 741.25-1.61 739.27-3.56 737.29-5.52 736.17-8.23 735.04-10.94 735.04-14.16L735.04-14.16Q735.04-17.38 736.17-20.09 737.29-22.8 739.27-24.76 741.25-26.71 743.98-27.8 746.71-28.88 749.94-28.88L749.94-28.88Q751.5-28.88 753.14-28.66 754.77-28.44 756.31-27.97 757.85-27.49 759.21-26.73 760.58-25.98 761.6-24.87 762.61-23.75 763.21-22.29 763.8-20.83 763.8-18.95ZM792.93-25.71L792.93-25.71 788.29-18.02Q788-18.99 787.53-20.21 787.07-21.44 786.39-22.5 785.7-23.56 784.75-24.28 783.8-25 782.55-25L782.55-25Q781.4-25 780.56-24.41 779.72-23.83 779.13-22.89 778.55-21.95 778.17-20.76 777.79-19.58 777.58-18.37 777.38-17.16 777.3-16.05 777.23-14.94 777.23-14.14L777.23-14.14 777.23 0 768.95 0 768.95-28.2 772.13-28.2 775.47-21.63Q776.16-23.22 777.03-24.55 777.91-25.88 779.06-26.84 780.21-27.81 781.66-28.34 783.11-28.88 784.94-28.88L784.94-28.88Q785.9-28.88 787.07-28.72 788.24-28.56 789.36-28.19 790.49-27.81 791.44-27.2 792.39-26.59 792.93-25.71ZM802.42-13.38L802.42-13.38Q803.94-13.04 805.45-12.84 806.96-12.65 808.5-12.65L808.5-12.65Q810.11-12.65 811.49-12.95 812.87-13.26 813.89-13.98 814.9-14.7 815.48-15.89 816.07-17.09 816.07-18.87L816.07-18.87Q816.07-20.31 815.68-21.51 815.29-22.71 814.52-23.56 813.75-24.41 812.63-24.89 811.5-25.37 810.02-25.37L810.02-25.37Q808.62-25.37 807.51-24.85 806.4-24.34 805.56-23.47 804.72-22.61 804.12-21.46 803.52-20.31 803.13-19.07 802.74-17.82 802.57-16.55 802.4-15.28 802.4-14.16L802.4-14.16Q802.4-13.96 802.4-13.77 802.4-13.57 802.42-13.38ZM822.76-18.95L822.76-18.95Q822.76-17.21 822.2-15.86 821.64-14.5 820.67-13.48 819.71-12.45 818.44-11.74 817.17-11.04 815.73-10.58 814.29-10.13 812.76-9.94 811.24-9.74 809.8-9.74L809.8-9.74Q807.96-9.74 806.18-10 804.4-10.25 802.67-10.82L802.67-10.82Q802.94-9.2 803.52-7.75 804.11-6.3 805.08-5.21 806.06-4.13 807.49-3.49 808.92-2.86 810.87-2.86L810.87-2.86Q812.16-2.86 813.34-3.25 814.51-3.64 815.48-4.35 816.46-5.05 817.21-6.03 817.95-7.01 818.41-8.2L818.41-8.2 821.98-6.88Q821.17-4.96 819.77-3.55 818.37-2.15 816.6-1.23 814.83-0.32 812.84 0.12 810.85 0.56 808.89 0.56L808.89 0.56Q805.67 0.56 802.94-0.52 800.2-1.61 798.22-3.56 796.25-5.52 795.12-8.23 794-10.94 794-14.16L794-14.16Q794-17.38 795.12-20.09 796.25-22.8 798.22-24.76 800.2-26.71 802.94-27.8 805.67-28.88 808.89-28.88L808.89-28.88Q810.45-28.88 812.09-28.66 813.73-28.44 815.26-27.97 816.8-27.49 818.17-26.73 819.54-25.98 820.55-24.87 821.56-23.75 822.16-22.29 822.76-20.83 822.76-18.95Z" opacity="1" transform="matrix(1,0,0,1,0,0)" fill="#f5ba41" class="slogan-text-1" data-fill-palette-color="secondary" id="text-1"></path></svg></g></svg></g></svg></g></svg></g></svg></g><defs></defs></svg><rect width="254.23159040642585" height="280" fill="none" stroke="none" visibility="hidden"></rect></g></svg></g></svg>